<svg width="160" height="30" viewBox="0 0 160 30" fill="none" xmlns="http://www.w3.org/2000/svg">
<path fill-rule="evenodd" clip-rule="evenodd" d="M121.03 27.3882C121.709 28.0697 122.63 28.4105 123.791 28.4105H131.268V24.3919H124.641V11.391H131.268V10.1424V6.9686H124.641V0H120.01V6.9686H115.723V10.1849H120.01V11.391V24.6196C120.01 25.7554 120.35 26.6783 121.03 27.3882Z" fill="black"/>
<path fill-rule="evenodd" clip-rule="evenodd" d="M94.7926 28.4024H99.6069L99.6069 24.4634V16.1915C99.6069 12.734 101.533 10.677 104.771 10.677C108.098 10.677 109.629 12.6465 109.629 15.9727L109.629 24.4634V28.4024H114.444V24.4634V15.7539C114.444 10.4144 112.168 6.43164 106.216 6.43164C103.064 6.43164 100.526 7.87593 99.2568 10.9396V6.96769H91.5977V10.184H94.7926V10.8958L94.7926 24.4634V28.4024Z" fill="black"/>
<path fill-rule="evenodd" clip-rule="evenodd" d="M91.9444 28.4023H83.8992V25.0323C82.3237 27.7458 79.5663 28.9275 76.7215 28.9275C72.3887 28.9275 69.2812 26.3453 69.2812 22.3625C69.2813 18.6862 71.9511 16.2353 76.3714 16.2353H82.5862C82.6122 16.2353 82.6375 16.235 82.6623 16.2344H88.3634V24.3892H91.9444V28.4023ZM74.008 22.2313C74.008 20.6119 74.9272 19.5178 77.2905 19.5178H83.5929V20.1742C83.5929 23.3254 80.8356 25.2512 77.6845 25.2512C75.4524 25.2512 74.008 24.157 74.008 22.2313Z" fill="black"/>
<path d="M79.3913 6.43164C83.956 6.43164 86.9393 8.56784 87.9659 12.3101H83.0101C82.3079 10.9961 81.017 10.3269 79.3913 10.3269C76.8966 10.3269 75.4086 11.6836 74.4895 13.9595L70.1128 12.8215C71.6009 8.75126 74.9709 6.43164 79.3913 6.43164Z" fill="black"/>
<path d="M156.004 12.457H160.001V16.4539H156.004V12.457Z" fill="black"/>
<path fill-rule="evenodd" clip-rule="evenodd" d="M159.811 28.5371H148.161V25.1671C146.585 27.8806 143.828 29.0623 140.983 29.0623C136.65 29.0623 133.543 26.48 133.543 22.4973C133.543 18.821 136.213 16.3701 140.633 16.3701H146.848C146.874 16.3701 146.899 16.3697 146.924 16.3691H152.625V24.524H156.206C156.206 24.524 156.206 23.6631 156.206 21.5084V19.6526H159.811V28.5371ZM138.27 22.366C138.27 20.7467 139.189 19.6526 141.552 19.6526H147.855V20.309C147.855 23.4602 145.097 25.386 141.946 25.386C139.714 25.386 138.27 24.2917 138.27 22.366Z" fill="black"/>
<path d="M143.653 6.56641C148.218 6.56641 151.201 8.7026 152.228 12.4449H147.272C146.57 11.1309 145.279 10.4616 143.653 10.4616C141.158 10.4616 139.67 11.8184 138.751 14.0942L134.375 12.9563C135.863 8.88603 139.233 6.56641 143.653 6.56641Z" fill="black"/>
<path fill-rule="evenodd" clip-rule="evenodd" d="M58.6328 24.9367C58.6328 26.861 60.1928 28.421 62.1171 28.421H67.7669V24.3901H63.4471V0H58.633L58.6328 3.21628V24.482V24.9367Z" fill="black"/>
<path fill-rule="evenodd" clip-rule="evenodd" d="M56.6163 28.5059H48.5711V25.1358C46.9955 27.8493 44.2382 29.031 41.3934 29.031C37.0605 29.031 33.9531 26.4488 33.9531 22.466C33.9532 18.7897 36.6229 16.3388 41.0433 16.3388H47.2581C47.2841 16.3388 47.3094 16.3385 47.3341 16.3379H53.0352V24.4927H56.6163V28.5059ZM38.6799 22.3348C38.6799 20.7154 39.599 19.6213 41.9624 19.6213H48.2648V20.2778C48.2648 23.4289 45.5075 25.3547 42.3563 25.3548C40.1242 25.3548 38.6799 24.2605 38.6799 22.3348Z" fill="black"/>
<path d="M44.0631 6.53516C48.6279 6.53516 51.6112 8.67135 52.6378 12.4136H47.682C46.9797 11.0996 45.6889 10.4304 44.0631 10.4304C41.5685 10.4304 40.0805 11.7871 39.1614 14.063L34.7847 12.925C36.2727 8.85478 39.6427 6.53516 44.0631 6.53516Z" fill="black"/>
<path fill-rule="evenodd" clip-rule="evenodd" d="M9.28999 2.61349C8.89288 1.075 7.50518 3.46562e-05 5.91627 0H0.000193612L0 3.21628V28.4179H4.50496V4.4657L4.50428 3.84099L4.50361 3.21628H4.72491L4.78533 3.43693L4.89598 3.84099L5.06705 4.4657L5.34877 5.49447L11.6262 28.4179H18.6827L24.9306 6.03052L25.3673 4.4657L25.5417 3.84099H25.9302V4.4657V28.4179H30.4353V0H21.863L15.1784 23.9103H15.1328L9.28999 2.61349Z" fill="black"/>
<path d="M4.78533 3.43693L4.72491 3.21628H4.50361L4.50428 3.84099H4.89598L4.78533 3.43693Z" fill="black"/>
</svg>
